<svg id="visual" viewBox="0 0 900 600" width="900" height="600" xmlns="http://www.w3.org/2000/svg" xmlns:xlink="http://www.w3.org/1999/xlink" version="1.1"><g transform="translate(495.80538741067346 290.0633425004228)"><path d="M130.5 -170.7C155.1 -134.8 151.4 -80.4 152.7 -32.9C153.9 14.6 160.1 55.3 144.3 83.9C128.5 112.6 90.8 129.1 46 160.1C1.1 191.1 -50.7 236.5 -99.8 235.5C-148.9 234.4 -195.3 187 -222 132.3C-248.7 77.5 -255.8 15.6 -232.2 -27.4C-208.5 -70.5 -154.1 -94.6 -110.2 -127.1C-66.4 -159.5 -33.2 -200.2 9.9 -212C52.9 -223.7 105.8 -206.5 130.5 -170.7" fill="#142850"></path></g></svg>