<svg id="visual" viewBox="0 0 900 100" width="900" height="100" xmlns="http://www.w3.org/2000/svg" xmlns:xlink="http://www.w3.org/1999/xlink" version="1.1"><rect x="0" y="0" width="900" height="100" fill="#27496d"></rect><path d="M0 65L150 66L300 60L450 71L600 64L750 69L900 65L900 0L750 0L600 0L450 0L300 0L150 0L0 0Z" fill="#32497c"></path><path d="M0 41L150 39L300 55L450 51L600 52L750 46L900 46L900 0L750 0L600 0L450 0L300 0L150 0L0 0Z" fill="#142850"></path><path d="M0 26L150 28L300 26L450 31L600 20L750 22L900 20L900 0L750 0L600 0L450 0L300 0L150 0L0 0Z" fill="#101f3b"></path></svg>