<svg id="visual" viewBox="0 0 900 450" width="900" height="450" xmlns="http://www.w3.org/2000/svg" xmlns:xlink="http://www.w3.org/1999/xlink" version="1.1"><rect x="0" y="0" width="900" height="450" fill="#142850"></rect><path d="M0 244L180 253L360 257L540 246L720 272L900 242L900 451L720 451L540 451L360 451L180 451L0 451Z" fill="#1e3650"></path><path d="M0 279L180 270L360 294L540 260L720 300L900 261L900 451L720 451L540 451L360 451L180 451L0 451Z" fill="#223f5e"></path><path d="M0 298L180 301L360 328L540 323L720 330L900 303L900 451L720 451L540 451L360 451L180 451L0 451Z" fill="#27496d"></path><path d="M0 347L180 349L360 361L540 343L720 353L900 374L900 451L720 451L540 451L360 451L180 451L0 451Z" fill="#3b5b7f"></path><path d="M0 416L180 413L360 391L540 385L720 409L900 421L900 451L720 451L540 451L360 451L180 451L0 451Z" fill="#4e6d91"></path></svg>