<svg id="visual" viewBox="0 0 900 300" width="900" height="300" xmlns="http://www.w3.org/2000/svg" xmlns:xlink="http://www.w3.org/1999/xlink" version="1.1"><rect x="0" y="0" width="900" height="300" fill="#142850"></rect><path d="M0 230L113 220L225 212L338 196L450 249L563 251L675 245L788 195L900 242L900 0L788 0L675 0L563 0L450 0L338 0L225 0L113 0L0 0Z" fill="#4e6d91"></path><path d="M0 165L113 163L225 155L338 184L450 176L563 204L675 165L788 174L900 202L900 0L788 0L675 0L563 0L450 0L338 0L225 0L113 0L0 0Z" fill="#3b5b7f"></path><path d="M0 129L113 142L225 128L338 132L450 141L563 140L675 152L788 117L900 139L900 0L788 0L675 0L563 0L450 0L338 0L225 0L113 0L0 0Z" fill="#27496d"></path><path d="M0 89L113 101L225 93L338 96L450 110L563 81L675 84L788 89L900 71L900 0L788 0L675 0L563 0L450 0L338 0L225 0L113 0L0 0Z" fill="#223f5e"></path><path d="M0 36L113 58L225 32L338 46L450 47L563 43L675 30L788 29L900 47L900 0L788 0L675 0L563 0L450 0L338 0L225 0L113 0L0 0Z" fill="#27496d"></path></svg>